<?xml version="1.0" encoding="UTF-8"?>
<svg xmlns="http://www.w3.org/2000/svg"
     width="512" height="512"
     viewBox="0 0 512 512">
  <g>
    <path id="n" d="M 26.5,371.23 Q 10,361.704 10,342.651 L 10,29.053 Q 10,10 26.5,19.526 L 236.5,140.77 Q 253,150.296 253,169.349 L 253,482.947 Q 253,502 236.5,492.474 L 164.5,450.905 Q 148,441.378 148,422.326 L 148,229.97 Q 148,210.918 131.5,201.392 L 131.5,201.392 Q 115,191.865 115,210.918 L 115,403.273 Q 115,422.326 98.5,412.799 Z" fill="#111827"/>
    <path id="u" d="M 259,169.349 Q 259,150.296 275.5,140.77 L 347.5,99.201 Q 364,89.674 364,108.727 L 364,301.082 Q 364,320.135 380.5,310.608 L 380.5,310.608 Q 397,301.082 397,282.03 L 397,89.674 Q 397,70.622 413.5,61.095 L 485.5,19.526 Q 502,10 502,29.053 L 502,342.651 Q 502,361.704 485.5,371.23 L 275.5,492.474 Q 259,502 259,482.947 Z" fill="#111827"/>
  </g>
</svg>
